<svg width="29" height="29" viewBox="0 0 29 29" fill="none" xmlns="http://www.w3.org/2000/svg">
<g clip-path="url(#clip0_27_37)">
<path d="M14.5 29C22.5081 29 29 22.5081 29 14.5C29 6.49187 22.5081 0 14.5 0C6.49187 0 0 6.49187 0 14.5C0 22.5081 6.49187 29 14.5 29Z" fill="white"/>
<path fill-rule="evenodd" clip-rule="evenodd" d="M14.512 0C6.48724 0 0 6.53509 0 14.6198C0 21.0824 4.15659 26.5528 9.92289 28.489C10.6438 28.6345 10.9079 28.1744 10.9079 27.7874C10.9079 27.4484 10.8841 26.2867 10.8841 25.0762C6.84726 25.9478 6.00661 23.3335 6.00661 23.3335C5.35786 21.6391 4.39661 21.2036 4.39661 21.2036C3.07534 20.308 4.49286 20.308 4.49286 20.308C5.95849 20.4048 6.72758 21.8087 6.72758 21.8087C8.02478 24.0354 10.1151 23.4062 10.956 23.0189C11.0761 22.0749 11.4607 21.4213 11.8692 21.0584C8.64943 20.7194 5.26191 19.4608 5.26191 13.8451C5.26191 12.2476 5.83819 10.9406 6.75132 9.9241C6.60723 9.56112 6.10257 8.06013 6.89566 6.05115C6.89566 6.05115 8.12103 5.66382 10.8838 7.55184C12.0667 7.23181 13.2866 7.06905 14.512 7.06766C15.7373 7.06766 16.9864 7.23731 18.1399 7.55184C20.903 5.66382 22.1283 6.05115 22.1283 6.05115C22.9214 8.06013 22.4165 9.56112 22.2724 9.9241C23.2095 10.9406 23.7621 12.2476 23.7621 13.8451C23.7621 19.4608 20.3746 20.6951 17.1308 21.0584C17.6595 21.5182 18.1158 22.3894 18.1158 23.7692C18.1158 25.7297 18.092 27.3032 18.092 27.7871C18.092 28.1744 18.3564 28.6345 19.077 28.4893C24.8433 26.5526 28.9999 21.0824 28.9999 14.6198C29.0237 6.53509 22.5127 0 14.512 0Z" fill="#24292F"/>
</g>
<defs>
<clipPath id="clip0_27_37">
<rect width="29" height="29" fill="white"/>
</clipPath>
</defs>
</svg>
