<svg width="60" height="60" viewBox="0 0 60 60" fill="none" xmlns="http://www.w3.org/2000/svg">
<mask id="mask0_40_155" style="mask-type:luminance" maskUnits="userSpaceOnUse" x="0" y="0" width="60" height="60">
<path d="M60 0H0V60H60V0Z" fill="white"/>
</mask>
<g mask="url(#mask0_40_155)">
<path d="M30 60C46.5685 60 60 46.5685 60 30C60 13.4315 46.5685 0 30 0C13.4315 0 0 13.4315 0 30C0 46.5685 13.4315 60 30 60Z" fill="url(#paint0_linear_40_155)"/>
<path fill-rule="evenodd" clip-rule="evenodd" d="M13.5797 29.6833C22.3254 25.873 28.1571 23.361 31.0751 22.1474C39.4064 18.682 41.1375 18.0801 42.2659 18.0603C42.5141 18.0559 43.069 18.1174 43.4284 18.409C43.7319 18.6553 43.8154 18.988 43.8554 19.2214C43.8954 19.4549 43.9451 19.9869 43.9055 20.4024C43.4541 25.1461 41.5005 36.6579 40.5066 41.9709C40.0861 44.219 39.2581 44.9729 38.4565 45.0466C36.7142 45.2069 35.3914 43.8953 33.704 42.7891C31.0636 41.0584 29.572 39.9809 27.009 38.292C24.0471 36.3401 25.9672 35.2674 27.6552 33.5141C28.097 33.0553 35.7729 26.0734 35.9215 25.44C35.9401 25.3608 35.9574 25.0655 35.7819 24.9096C35.6065 24.7538 35.3476 24.807 35.1607 24.8494C34.896 24.9095 30.6779 27.6975 22.5066 33.2134C21.3094 34.0355 20.2249 34.4361 19.2532 34.4151C18.1821 34.3919 16.1216 33.8094 14.5899 33.3115C12.7111 32.7008 11.2179 32.3779 11.3479 31.3408C11.4156 30.8005 12.1596 30.248 13.5797 29.6833Z" fill="white"/>
</g>
<defs>
<linearGradient id="paint0_linear_40_155" x1="30" y1="0" x2="30" y2="59.555" gradientUnits="userSpaceOnUse">
<stop stop-color="#2AABEE"/>
<stop offset="1" stop-color="#229ED9"/>
</linearGradient>
</defs>
</svg>
