<svg width="495" height="727" viewBox="0 0 495 727" fill="none" xmlns="http://www.w3.org/2000/svg">
<rect width="495" height="727" fill="#C12E2E"/>
<rect x="87" y="243.012" width="58" height="396" transform="rotate(-45 87 243.012)" fill="#612EEE"/>
<rect x="367.014" y="202" width="58" height="396" transform="rotate(45 367.014 202)" fill="#612EEE"/>
<path d="M124.689 270.182V340H109.928V270.182H124.689ZM136.561 340V287.636H150.402V296.875H151.016C152.107 293.807 153.925 291.386 156.47 289.614C159.016 287.841 162.061 286.955 165.607 286.955C169.197 286.955 172.254 287.852 174.777 289.648C177.3 291.42 178.982 293.83 179.822 296.875H180.368C181.436 293.875 183.368 291.477 186.163 289.682C188.982 287.864 192.311 286.955 196.152 286.955C201.038 286.955 205.004 288.511 208.05 291.625C211.118 294.716 212.652 299.102 212.652 304.784V340H198.163V307.648C198.163 304.739 197.391 302.557 195.845 301.102C194.3 299.648 192.368 298.92 190.05 298.92C187.413 298.92 185.357 299.761 183.879 301.443C182.402 303.102 181.663 305.295 181.663 308.023V340H167.584V307.341C167.584 304.773 166.845 302.727 165.368 301.205C163.913 299.682 161.993 298.92 159.607 298.92C157.993 298.92 156.538 299.33 155.243 300.148C153.97 300.943 152.959 302.068 152.209 303.523C151.459 304.955 151.084 306.636 151.084 308.568V340H136.561ZM239.055 340.989C235.714 340.989 232.737 340.409 230.124 339.25C227.51 338.068 225.442 336.33 223.919 334.034C222.419 331.716 221.669 328.83 221.669 325.375C221.669 322.466 222.203 320.023 223.271 318.045C224.339 316.068 225.794 314.477 227.635 313.273C229.476 312.068 231.567 311.159 233.908 310.545C236.271 309.932 238.749 309.5 241.339 309.25C244.385 308.932 246.839 308.636 248.703 308.364C250.567 308.068 251.919 307.636 252.76 307.068C253.601 306.5 254.021 305.659 254.021 304.545V304.341C254.021 302.182 253.339 300.511 251.976 299.33C250.635 298.148 248.726 297.557 246.249 297.557C243.635 297.557 241.555 298.136 240.01 299.295C238.464 300.432 237.442 301.864 236.942 303.591L223.51 302.5C224.192 299.318 225.533 296.568 227.533 294.25C229.533 291.909 232.112 290.114 235.271 288.864C238.453 287.591 242.135 286.955 246.317 286.955C249.226 286.955 252.01 287.295 254.669 287.977C257.351 288.659 259.726 289.716 261.794 291.148C263.885 292.58 265.533 294.42 266.737 296.67C267.942 298.898 268.544 301.568 268.544 304.682V340H254.771V332.739H254.362C253.521 334.375 252.396 335.818 250.987 337.068C249.578 338.295 247.885 339.261 245.908 339.966C243.93 340.648 241.646 340.989 239.055 340.989ZM243.214 330.966C245.351 330.966 247.237 330.545 248.874 329.705C250.51 328.841 251.794 327.682 252.726 326.227C253.658 324.773 254.124 323.125 254.124 321.284V315.727C253.669 316.023 253.044 316.295 252.249 316.545C251.476 316.773 250.601 316.989 249.624 317.193C248.646 317.375 247.669 317.545 246.692 317.705C245.714 317.841 244.828 317.966 244.033 318.08C242.328 318.33 240.839 318.727 239.567 319.273C238.294 319.818 237.305 320.557 236.601 321.489C235.896 322.398 235.544 323.534 235.544 324.898C235.544 326.875 236.26 328.386 237.692 329.432C239.146 330.455 240.987 330.966 243.214 330.966ZM303.402 360.727C298.697 360.727 294.663 360.08 291.3 358.784C287.959 357.511 285.3 355.773 283.322 353.568C281.345 351.364 280.061 348.886 279.47 346.136L292.902 344.33C293.311 345.375 293.959 346.352 294.845 347.261C295.732 348.17 296.902 348.898 298.357 349.443C299.834 350.011 301.629 350.295 303.743 350.295C306.902 350.295 309.504 349.523 311.55 347.977C313.618 346.455 314.652 343.898 314.652 340.307V330.727H314.038C313.402 332.182 312.447 333.557 311.175 334.852C309.902 336.148 308.266 337.205 306.266 338.023C304.266 338.841 301.879 339.25 299.107 339.25C295.175 339.25 291.595 338.341 288.368 336.523C285.163 334.682 282.607 331.875 280.697 328.102C278.811 324.307 277.868 319.511 277.868 313.716C277.868 307.784 278.834 302.83 280.766 298.852C282.697 294.875 285.266 291.898 288.47 289.92C291.697 287.943 295.232 286.955 299.072 286.955C302.004 286.955 304.459 287.455 306.436 288.455C308.413 289.432 310.004 290.659 311.209 292.136C312.436 293.591 313.379 295.023 314.038 296.432H314.584V287.636H329.004V340.511C329.004 344.966 327.913 348.693 325.732 351.693C323.55 354.693 320.527 356.943 316.663 358.443C312.822 359.966 308.402 360.727 303.402 360.727ZM303.709 328.341C306.05 328.341 308.027 327.761 309.641 326.602C311.277 325.42 312.527 323.739 313.391 321.557C314.277 319.352 314.72 316.716 314.72 313.648C314.72 310.58 314.288 307.92 313.425 305.67C312.561 303.398 311.311 301.636 309.675 300.386C308.038 299.136 306.05 298.511 303.709 298.511C301.322 298.511 299.311 299.159 297.675 300.455C296.038 301.727 294.8 303.5 293.959 305.773C293.118 308.045 292.697 310.67 292.697 313.648C292.697 316.67 293.118 319.284 293.959 321.489C294.822 323.67 296.061 325.364 297.675 326.568C299.311 327.75 301.322 328.341 303.709 328.341ZM364.425 341.023C359.038 341.023 354.402 339.932 350.516 337.75C346.652 335.545 343.675 332.432 341.584 328.409C339.493 324.364 338.447 319.58 338.447 314.057C338.447 308.67 339.493 303.943 341.584 299.875C343.675 295.807 346.618 292.636 350.413 290.364C354.232 288.091 358.709 286.955 363.845 286.955C367.3 286.955 370.516 287.511 373.493 288.625C376.493 289.716 379.107 291.364 381.334 293.568C383.584 295.773 385.334 298.545 386.584 301.886C387.834 305.205 388.459 309.091 388.459 313.545V317.534H344.243V308.534H374.788C374.788 306.443 374.334 304.591 373.425 302.977C372.516 301.364 371.254 300.102 369.641 299.193C368.05 298.261 366.197 297.795 364.084 297.795C361.879 297.795 359.925 298.307 358.22 299.33C356.538 300.33 355.22 301.682 354.266 303.386C353.311 305.068 352.822 306.943 352.8 309.011V317.568C352.8 320.159 353.277 322.398 354.232 324.284C355.209 326.17 356.584 327.625 358.357 328.648C360.129 329.67 362.232 330.182 364.663 330.182C366.277 330.182 367.754 329.955 369.095 329.5C370.436 329.045 371.584 328.364 372.538 327.455C373.493 326.545 374.22 325.432 374.72 324.114L388.152 325C387.47 328.227 386.072 331.045 383.959 333.455C381.868 335.841 379.163 337.705 375.845 339.045C372.55 340.364 368.743 341.023 364.425 341.023ZM72.2401 386.182H87.0014V431.523C87.0014 436.614 85.7855 441.068 83.3537 444.886C80.9446 448.705 77.5696 451.682 73.2287 453.818C68.8878 455.932 63.831 456.989 58.0582 456.989C52.2628 456.989 47.1946 455.932 42.8537 453.818C38.5128 451.682 35.1378 448.705 32.7287 444.886C30.3196 441.068 29.1151 436.614 29.1151 431.523V386.182H43.8764V430.261C43.8764 432.92 44.456 435.284 45.6151 437.352C46.7969 439.42 48.456 441.045 50.5923 442.227C52.7287 443.409 55.2173 444 58.0582 444C60.9219 444 63.4105 443.409 65.5241 442.227C67.6605 441.045 69.3082 439.42 70.4673 437.352C71.6491 435.284 72.2401 432.92 72.2401 430.261V386.182ZM113.396 425.727V456H98.8736V403.636H112.714V412.875H113.328C114.487 409.83 116.43 407.42 119.158 405.648C121.885 403.852 125.192 402.955 129.078 402.955C132.714 402.955 135.885 403.75 138.589 405.341C141.294 406.932 143.396 409.205 144.896 412.159C146.396 415.091 147.146 418.591 147.146 422.659V456H132.624V425.25C132.646 422.045 131.828 419.545 130.169 417.75C128.51 415.932 126.226 415.023 123.317 415.023C121.362 415.023 119.635 415.443 118.135 416.284C116.658 417.125 115.499 418.352 114.658 419.966C113.839 421.557 113.419 423.477 113.396 425.727ZM173.115 386.182V456H158.592V386.182H173.115ZM208.408 457.023C203.112 457.023 198.533 455.898 194.669 453.648C190.828 451.375 187.862 448.216 185.771 444.17C183.68 440.102 182.635 435.386 182.635 430.023C182.635 424.614 183.68 419.886 185.771 415.841C187.862 411.773 190.828 408.614 194.669 406.364C198.533 404.091 203.112 402.955 208.408 402.955C213.703 402.955 218.271 404.091 222.112 406.364C225.976 408.614 228.953 411.773 231.044 415.841C233.135 419.886 234.18 424.614 234.18 430.023C234.18 435.386 233.135 440.102 231.044 444.17C228.953 448.216 225.976 451.375 222.112 453.648C218.271 455.898 213.703 457.023 208.408 457.023ZM208.476 445.773C210.885 445.773 212.896 445.091 214.51 443.727C216.124 442.341 217.339 440.455 218.158 438.068C218.999 435.682 219.419 432.966 219.419 429.92C219.419 426.875 218.999 424.159 218.158 421.773C217.339 419.386 216.124 417.5 214.51 416.114C212.896 414.727 210.885 414.034 208.476 414.034C206.044 414.034 203.999 414.727 202.339 416.114C200.703 417.5 199.464 419.386 198.624 421.773C197.805 424.159 197.396 426.875 197.396 429.92C197.396 432.966 197.805 435.682 198.624 438.068C199.464 440.455 200.703 442.341 202.339 443.727C203.999 445.091 206.044 445.773 208.476 445.773ZM258.555 456.989C255.214 456.989 252.237 456.409 249.624 455.25C247.01 454.068 244.942 452.33 243.419 450.034C241.919 447.716 241.169 444.83 241.169 441.375C241.169 438.466 241.703 436.023 242.771 434.045C243.839 432.068 245.294 430.477 247.135 429.273C248.976 428.068 251.067 427.159 253.408 426.545C255.771 425.932 258.249 425.5 260.839 425.25C263.885 424.932 266.339 424.636 268.203 424.364C270.067 424.068 271.419 423.636 272.26 423.068C273.101 422.5 273.521 421.659 273.521 420.545V420.341C273.521 418.182 272.839 416.511 271.476 415.33C270.135 414.148 268.226 413.557 265.749 413.557C263.135 413.557 261.055 414.136 259.51 415.295C257.964 416.432 256.942 417.864 256.442 419.591L243.01 418.5C243.692 415.318 245.033 412.568 247.033 410.25C249.033 407.909 251.612 406.114 254.771 404.864C257.953 403.591 261.635 402.955 265.817 402.955C268.726 402.955 271.51 403.295 274.169 403.977C276.851 404.659 279.226 405.716 281.294 407.148C283.385 408.58 285.033 410.42 286.237 412.67C287.442 414.898 288.044 417.568 288.044 420.682V456H274.271V448.739H273.862C273.021 450.375 271.896 451.818 270.487 453.068C269.078 454.295 267.385 455.261 265.408 455.966C263.43 456.648 261.146 456.989 258.555 456.989ZM262.714 446.966C264.851 446.966 266.737 446.545 268.374 445.705C270.01 444.841 271.294 443.682 272.226 442.227C273.158 440.773 273.624 439.125 273.624 437.284V431.727C273.169 432.023 272.544 432.295 271.749 432.545C270.976 432.773 270.101 432.989 269.124 433.193C268.146 433.375 267.169 433.545 266.192 433.705C265.214 433.841 264.328 433.966 263.533 434.08C261.828 434.33 260.339 434.727 259.067 435.273C257.794 435.818 256.805 436.557 256.101 437.489C255.396 438.398 255.044 439.534 255.044 440.898C255.044 442.875 255.76 444.386 257.192 445.432C258.646 446.455 260.487 446.966 262.714 446.966ZM318.607 456.852C314.629 456.852 311.027 455.83 307.8 453.784C304.595 451.716 302.05 448.682 300.163 444.682C298.3 440.659 297.368 435.727 297.368 429.886C297.368 423.886 298.334 418.898 300.266 414.92C302.197 410.92 304.766 407.932 307.97 405.955C311.197 403.955 314.732 402.955 318.572 402.955C321.504 402.955 323.947 403.455 325.902 404.455C327.879 405.432 329.47 406.659 330.675 408.136C331.902 409.591 332.834 411.023 333.47 412.432H333.913V386.182H348.402V456H334.084V447.614H333.47C332.788 449.068 331.822 450.511 330.572 451.943C329.345 453.352 327.743 454.523 325.766 455.455C323.811 456.386 321.425 456.852 318.607 456.852ZM323.209 445.295C325.55 445.295 327.527 444.659 329.141 443.386C330.777 442.091 332.027 440.284 332.891 437.966C333.777 435.648 334.22 432.932 334.22 429.818C334.22 426.705 333.788 424 332.925 421.705C332.061 419.409 330.811 417.636 329.175 416.386C327.538 415.136 325.55 414.511 323.209 414.511C320.822 414.511 318.811 415.159 317.175 416.455C315.538 417.75 314.3 419.545 313.459 421.841C312.618 424.136 312.197 426.795 312.197 429.818C312.197 432.864 312.618 435.557 313.459 437.898C314.322 440.216 315.561 442.034 317.175 443.352C318.811 444.648 320.822 445.295 323.209 445.295ZM384.206 457.023C378.82 457.023 374.183 455.932 370.297 453.75C366.433 451.545 363.456 448.432 361.365 444.409C359.274 440.364 358.229 435.58 358.229 430.057C358.229 424.67 359.274 419.943 361.365 415.875C363.456 411.807 366.399 408.636 370.195 406.364C374.013 404.091 378.49 402.955 383.626 402.955C387.081 402.955 390.297 403.511 393.274 404.625C396.274 405.716 398.888 407.364 401.115 409.568C403.365 411.773 405.115 414.545 406.365 417.886C407.615 421.205 408.24 425.091 408.24 429.545V433.534H364.024V424.534H394.57C394.57 422.443 394.115 420.591 393.206 418.977C392.297 417.364 391.036 416.102 389.422 415.193C387.831 414.261 385.979 413.795 383.865 413.795C381.661 413.795 379.706 414.307 378.001 415.33C376.32 416.33 375.001 417.682 374.047 419.386C373.092 421.068 372.604 422.943 372.581 425.011V433.568C372.581 436.159 373.058 438.398 374.013 440.284C374.99 442.17 376.365 443.625 378.138 444.648C379.911 445.67 382.013 446.182 384.445 446.182C386.058 446.182 387.536 445.955 388.876 445.5C390.217 445.045 391.365 444.364 392.32 443.455C393.274 442.545 394.001 441.432 394.501 440.114L407.933 441C407.251 444.227 405.854 447.045 403.74 449.455C401.649 451.841 398.945 453.705 395.626 455.045C392.331 456.364 388.524 457.023 384.206 457.023ZM437.013 456.852C433.036 456.852 429.433 455.83 426.206 453.784C423.001 451.716 420.456 448.682 418.57 444.682C416.706 440.659 415.774 435.727 415.774 429.886C415.774 423.886 416.74 418.898 418.672 414.92C420.604 410.92 423.172 407.932 426.376 405.955C429.604 403.955 433.138 402.955 436.979 402.955C439.911 402.955 442.354 403.455 444.308 404.455C446.286 405.432 447.876 406.659 449.081 408.136C450.308 409.591 451.24 411.023 451.876 412.432H452.32V386.182H466.808V456H452.49V447.614H451.876C451.195 449.068 450.229 450.511 448.979 451.943C447.751 453.352 446.149 454.523 444.172 455.455C442.217 456.386 439.831 456.852 437.013 456.852ZM441.615 445.295C443.956 445.295 445.933 444.659 447.547 443.386C449.183 442.091 450.433 440.284 451.297 437.966C452.183 435.648 452.626 432.932 452.626 429.818C452.626 426.705 452.195 424 451.331 421.705C450.467 419.409 449.217 417.636 447.581 416.386C445.945 415.136 443.956 414.511 441.615 414.511C439.229 414.511 437.217 415.159 435.581 416.455C433.945 417.75 432.706 419.545 431.865 421.841C431.024 424.136 430.604 426.795 430.604 429.818C430.604 432.864 431.024 435.557 431.865 437.898C432.729 440.216 433.967 442.034 435.581 443.352C437.217 444.648 439.229 445.295 441.615 445.295Z" fill="white"/>
</svg>
