<svg width="278" height="208" viewBox="0 0 278 208" fill="none" xmlns="http://www.w3.org/2000/svg">
<g filter="url(#filter0_f_0_1)">
<circle cx="98.6" cy="108.6" r="40" fill="#612EEE"/>
</g>
<g filter="url(#filter1_f_0_1)">
<circle cx="178.6" cy="98.6" r="40" fill="#C12E2E"/>
</g>
<path d="M7.38398 122.6V88.04H39.208V94.424H13.768V102.104H34.216V108.536H13.768V122.6H7.38398ZM41.7835 122.6V94.76H48.0715V122.6H41.7835ZM41.7835 91.976V85.64H48.0715V91.976H41.7835ZM53.6451 122.6V94.76H75.2931C76.5091 94.76 77.6131 95.064 78.6051 95.672C79.6291 96.28 80.4291 97.08 81.0051 98.072C81.6131 99.064 81.9171 100.168 81.9171 101.384V122.6H75.6291V101.624C75.6291 101.464 75.5651 101.336 75.4371 101.24C75.3411 101.112 75.2131 101.048 75.0531 101.048H60.5091C60.3491 101.048 60.2051 101.112 60.0771 101.24C59.9811 101.336 59.9331 101.464 59.9331 101.624V122.6H53.6451ZM92.203 122.6C90.955 122.6 89.835 122.296 88.843 121.688C87.851 121.08 87.051 120.28 86.443 119.288C85.867 118.296 85.579 117.192 85.579 115.976V101.384C85.579 100.168 85.867 99.064 86.443 98.072C87.051 97.08 87.851 96.28 88.843 95.672C89.835 95.064 90.955 94.76 92.203 94.76H107.611V85.64H113.899V122.6H92.203ZM92.491 116.312H107.035C107.195 116.312 107.323 116.264 107.419 116.168C107.547 116.04 107.611 115.896 107.611 115.736V101.624C107.611 101.464 107.547 101.336 107.419 101.24C107.323 101.112 107.195 101.048 107.035 101.048H92.491C92.331 101.048 92.187 101.112 92.059 101.24C91.963 101.336 91.915 101.464 91.915 101.624V115.736C91.915 115.896 91.963 116.04 92.059 116.168C92.187 116.264 92.331 116.312 92.491 116.312ZM131.563 122.6V94.424H117.451V88.04H152.011V94.424H137.947V122.6H131.563ZM162.032 122.6C160.816 122.6 159.696 122.296 158.672 121.688C157.68 121.08 156.88 120.28 156.272 119.288C155.696 118.296 155.408 117.192 155.408 115.976V105.512H177.392V101.624C177.392 101.464 177.328 101.336 177.2 101.24C177.104 101.112 176.976 101.048 176.816 101.048H155.408V94.76H177.056C178.272 94.76 179.376 95.064 180.368 95.672C181.392 96.28 182.192 97.08 182.768 98.072C183.376 99.064 183.68 100.168 183.68 101.384V122.6H162.032ZM162.272 116.312H177.392V111.176H161.696V115.736C161.696 115.896 161.744 116.04 161.84 116.168C161.968 116.264 162.112 116.312 162.272 116.312ZM194.137 122.6C192.921 122.6 191.817 122.296 190.825 121.688C189.833 121.08 189.033 120.28 188.425 119.288C187.817 118.296 187.513 117.192 187.513 115.976V114.92H193.801V115.736C193.801 115.896 193.849 116.04 193.945 116.168C194.073 116.264 194.217 116.312 194.377 116.312H208.921C209.081 116.312 209.209 116.264 209.305 116.168C209.433 116.04 209.497 115.896 209.497 115.736V112.424C209.497 112.264 209.433 112.136 209.305 112.04C209.209 111.912 209.081 111.848 208.921 111.848H194.137C192.921 111.848 191.817 111.544 190.825 110.936C189.833 110.328 189.033 109.528 188.425 108.536C187.817 107.544 187.513 106.44 187.513 105.224V101.384C187.513 100.168 187.817 99.064 188.425 98.072C189.033 97.08 189.833 96.28 190.825 95.672C191.817 95.064 192.921 94.76 194.137 94.76H209.161C210.409 94.76 211.529 95.064 212.521 95.672C213.513 96.28 214.313 97.08 214.921 98.072C215.529 99.064 215.833 100.168 215.833 101.384V102.44H209.497V101.624C209.497 101.464 209.433 101.336 209.305 101.24C209.209 101.112 209.081 101.048 208.921 101.048H194.377C194.217 101.048 194.073 101.112 193.945 101.24C193.849 101.336 193.801 101.464 193.801 101.624V104.936C193.801 105.096 193.849 105.24 193.945 105.368C194.073 105.464 194.217 105.512 194.377 105.512H209.161C210.409 105.512 211.529 105.816 212.521 106.424C213.513 107.032 214.313 107.832 214.921 108.824C215.529 109.816 215.833 110.92 215.833 112.136V115.976C215.833 117.192 215.529 118.296 214.921 119.288C214.313 120.28 213.513 121.08 212.521 121.688C211.529 122.296 210.409 122.6 209.161 122.6H194.137ZM227.284 122.6C226.068 122.6 224.964 122.296 223.972 121.688C222.98 121.08 222.18 120.28 221.572 119.288C220.964 118.296 220.66 117.192 220.66 115.976V86.216H226.948V94.76H237.796V101.048H226.948V115.736C226.948 115.896 226.996 116.04 227.092 116.168C227.22 116.264 227.364 116.312 227.524 116.312H237.796V122.6H227.284ZM248.234 122.6C247.018 122.6 245.914 122.296 244.922 121.688C243.93 121.08 243.13 120.28 242.522 119.288C241.914 118.296 241.61 117.192 241.61 115.976V101.384C241.61 100.168 241.914 99.064 242.522 98.072C243.13 97.08 243.93 96.28 244.922 95.672C245.914 95.064 247.018 94.76 248.234 94.76H263.258C264.474 94.76 265.578 95.064 266.57 95.672C267.594 96.28 268.394 97.08 268.97 98.072C269.578 99.064 269.882 100.168 269.882 101.384V111.848H247.898V115.736C247.898 115.896 247.946 116.04 248.042 116.168C248.17 116.264 248.314 116.312 248.474 116.312H269.882V122.6H248.234ZM247.898 106.184H263.594V101.624C263.594 101.464 263.53 101.336 263.402 101.24C263.306 101.112 263.178 101.048 263.018 101.048H248.474C248.314 101.048 248.17 101.112 248.042 101.24C247.946 101.336 247.898 101.464 247.898 101.624V106.184Z" fill="#200000"/>
<defs>
<filter id="filter0_f_0_1" x="-2.28882e-05" y="10" width="197.2" height="197.2" filterUnits="userSpaceOnUse" color-interpolation-filters="sRGB">
<feFlood flood-opacity="0" result="BackgroundImageFix"/>
<feBlend mode="normal" in="SourceGraphic" in2="BackgroundImageFix" result="shape"/>
<feGaussianBlur stdDeviation="29.3" result="effect1_foregroundBlur_0_1"/>
</filter>
<filter id="filter1_f_0_1" x="80" y="0" width="197.2" height="197.2" filterUnits="userSpaceOnUse" color-interpolation-filters="sRGB">
<feFlood flood-opacity="0" result="BackgroundImageFix"/>
<feBlend mode="normal" in="SourceGraphic" in2="BackgroundImageFix" result="shape"/>
<feGaussianBlur stdDeviation="29.3" result="effect1_foregroundBlur_0_1"/>
</filter>
</defs>
</svg>
