<svg width="35" height="38" viewBox="0 0 35 38" fill="none" xmlns="http://www.w3.org/2000/svg">
<mask id="mask0_22_225" style="mask-type:luminance" maskUnits="userSpaceOnUse" x="0" y="0" width="35" height="38">
<path d="M35 0H0V37.9167H35V0Z" fill="white"/>
</mask>
<g mask="url(#mask0_22_225)">
<path d="M17.8952 15.7052L13.7332 20.1247L29.6407 37.0183L33.8013 32.5996L17.8952 15.7052Z" fill="#612EEE"/>
<path d="M10.9857 0C17.0523 0.000145833 21.9698 5.22346 21.9698 11.6667C21.9698 18.1099 17.0523 23.3332 10.9857 23.3333C4.91899 23.3333 0 18.11 0 11.6667C0 5.22331 4.91899 0 10.9857 0ZM10.9857 4.59142C7.07878 4.59142 3.91126 7.75892 3.91126 11.6667C3.91126 15.5744 7.07878 18.7419 10.9857 18.7419C14.894 18.7416 18.0615 15.5743 18.0615 11.6667C18.0615 7.75906 14.894 4.59171 10.9857 4.59142Z" fill="#C12E2E"/>
</g>
</svg>
